<svg width="1092" height="490" viewBox="0 0 1092 490" fill="none" xmlns="http://www.w3.org/2000/svg">
<rect width="1092" height="490" rx="20" fill="white"/>
<path d="M83.32 124V94.2H87.24V124H83.32ZM83.44 90.12L86.6 83.8H91.64L87.16 90.12H83.44ZM103.427 124.48C101.32 124.48 99.4402 123.987 97.7869 123C96.1602 122.013 94.8802 120.667 93.9469 118.96C93.0135 117.253 92.5469 115.333 92.5469 113.2C92.5469 111.04 93.0135 109.12 93.9469 107.44C94.8802 105.76 96.1602 104.427 97.7869 103.44C99.4402 102.453 101.32 101.96 103.427 101.96C104.84 101.96 106.16 102.213 107.387 102.72C108.614 103.227 109.694 103.907 110.627 104.76C111.56 105.613 112.24 106.613 112.667 107.76L109.347 109.36C108.84 108.24 108.067 107.333 107.027 106.64C105.987 105.92 104.787 105.56 103.427 105.56C102.12 105.56 100.934 105.893 99.8669 106.56C98.8269 107.227 98.0002 108.133 97.3869 109.28C96.7735 110.427 96.4669 111.747 96.4669 113.24C96.4669 114.68 96.7735 115.987 97.3869 117.16C98.0002 118.307 98.8269 119.213 99.8669 119.88C100.934 120.547 102.12 120.88 103.427 120.88C104.787 120.88 105.987 120.533 107.027 119.84C108.067 119.12 108.84 118.173 109.347 117L112.667 118.68C112.24 119.8 111.56 120.8 110.627 121.68C109.694 122.533 108.614 123.213 107.387 123.72C106.16 124.227 104.84 124.48 103.427 124.48ZM127.768 124.48C125.688 124.48 123.808 124 122.128 123.04C120.448 122.053 119.115 120.707 118.128 119C117.142 117.293 116.648 115.36 116.648 113.2C116.648 111.04 117.128 109.12 118.088 107.44C119.075 105.76 120.408 104.427 122.088 103.44C123.768 102.453 125.662 101.96 127.768 101.96C129.848 101.96 131.728 102.453 133.408 103.44C135.088 104.4 136.408 105.72 137.368 107.4C138.355 109.08 138.848 111.013 138.848 113.2C138.848 115.387 138.342 117.333 137.328 119.04C136.315 120.72 134.968 122.053 133.288 123.04C131.635 124 129.795 124.48 127.768 124.48ZM127.768 120.88C129.102 120.88 130.302 120.547 131.368 119.88C132.462 119.213 133.315 118.293 133.928 117.12C134.568 115.947 134.888 114.64 134.888 113.2C134.888 111.733 134.568 110.44 133.928 109.32C133.315 108.173 132.462 107.267 131.368 106.6C130.302 105.907 129.102 105.56 127.768 105.56C126.408 105.56 125.182 105.907 124.088 106.6C123.022 107.267 122.168 108.173 121.528 109.32C120.888 110.44 120.568 111.733 120.568 113.2C120.568 114.64 120.888 115.947 121.528 117.12C122.168 118.293 123.022 119.213 124.088 119.88C125.182 120.547 126.408 120.88 127.768 120.88ZM143.7 124V102.44H147.34V106.64L146.74 106.28C147.274 104.92 148.127 103.867 149.3 103.12C150.5 102.347 151.9 101.96 153.5 101.96C155.047 101.96 156.42 102.307 157.62 103C158.847 103.693 159.807 104.653 160.5 105.88C161.22 107.107 161.58 108.493 161.58 110.04V124H157.82V111.24C157.82 110.04 157.607 109.027 157.18 108.2C156.754 107.373 156.14 106.733 155.34 106.28C154.567 105.8 153.674 105.56 152.66 105.56C151.647 105.56 150.74 105.8 149.94 106.28C149.167 106.733 148.554 107.387 148.1 108.24C147.647 109.067 147.42 110.067 147.42 111.24V124H143.7ZM176.823 124.48C174.743 124.48 172.89 123.987 171.263 123C169.637 122.013 168.357 120.667 167.423 118.96C166.49 117.227 166.023 115.293 166.023 113.16C166.023 111 166.477 109.08 167.383 107.4C168.317 105.72 169.57 104.4 171.143 103.44C172.743 102.453 174.53 101.96 176.503 101.96C178.103 101.96 179.517 102.253 180.743 102.84C181.997 103.4 183.05 104.173 183.903 105.16C184.783 106.12 185.45 107.227 185.903 108.48C186.383 109.707 186.623 110.987 186.623 112.32C186.623 112.613 186.597 112.947 186.543 113.32C186.517 113.667 186.477 114 186.423 114.32H168.743V111.12H184.263L182.503 112.56C182.743 111.173 182.61 109.933 182.103 108.84C181.597 107.747 180.85 106.88 179.863 106.24C178.877 105.6 177.757 105.28 176.503 105.28C175.25 105.28 174.103 105.6 173.063 106.24C172.023 106.88 171.21 107.8 170.623 109C170.063 110.173 169.837 111.573 169.943 113.2C169.837 114.773 170.077 116.16 170.663 117.36C171.277 118.533 172.13 119.453 173.223 120.12C174.343 120.76 175.557 121.08 176.863 121.08C178.303 121.08 179.517 120.747 180.503 120.08C181.49 119.413 182.29 118.56 182.903 117.52L186.023 119.12C185.597 120.107 184.93 121.013 184.023 121.84C183.143 122.64 182.09 123.28 180.863 123.76C179.663 124.24 178.317 124.48 176.823 124.48ZM199.194 124.48C197.034 124.48 195.154 123.947 193.554 122.88C191.954 121.813 190.82 120.373 190.154 118.56L193.114 117.12C193.727 118.4 194.567 119.413 195.634 120.16C196.7 120.907 197.887 121.28 199.194 121.28C200.367 121.28 201.34 121 202.114 120.44C202.887 119.88 203.274 119.147 203.274 118.24C203.274 117.6 203.087 117.093 202.714 116.72C202.367 116.32 201.94 116.013 201.434 115.8C200.927 115.56 200.46 115.387 200.034 115.28L196.794 114.36C194.847 113.8 193.42 113 192.514 111.96C191.634 110.92 191.194 109.707 191.194 108.32C191.194 107.04 191.514 105.933 192.154 105C192.82 104.04 193.714 103.293 194.834 102.76C195.98 102.227 197.26 101.96 198.674 101.96C200.567 101.96 202.26 102.44 203.754 103.4C205.274 104.36 206.354 105.707 206.994 107.44L203.954 108.84C203.474 107.72 202.754 106.84 201.794 106.2C200.834 105.533 199.754 105.2 198.554 105.2C197.46 105.2 196.594 105.48 195.954 106.04C195.314 106.573 194.994 107.253 194.994 108.08C194.994 108.693 195.154 109.2 195.474 109.6C195.794 109.973 196.18 110.267 196.634 110.48C197.087 110.667 197.527 110.827 197.954 110.96L201.474 112C203.234 112.507 204.594 113.293 205.554 114.36C206.54 115.427 207.034 116.707 207.034 118.2C207.034 119.4 206.7 120.48 206.034 121.44C205.367 122.4 204.447 123.147 203.274 123.68C202.1 124.213 200.74 124.48 199.194 124.48Z" fill="#09090A"/>
<path d="M84 196H100" stroke="#8F8881" stroke-width="1.5" stroke-linecap="round" stroke-linejoin="round"/>
<path d="M89 201C89 201 84 197.318 84 196C84 194.682 89 191 89 191" stroke="#8F8881" stroke-width="1.5" stroke-linecap="round" stroke-linejoin="round"/>
<path d="M142.593 192.195C143.038 192.522 143.133 193.148 142.805 193.593C142.551 193.938 142.296 194.267 142.073 194.553C141.628 195.124 141.014 195.888 140.348 196.656C139.686 197.418 138.952 198.206 138.267 198.812C137.925 199.114 137.572 199.391 137.228 199.599C136.911 199.79 136.476 200 136 200C135.524 200 135.088 199.79 134.772 199.599C134.428 199.391 134.075 199.114 133.733 198.812C133.048 198.206 132.314 197.418 131.652 196.656C130.985 195.888 130.372 195.124 129.927 194.553C129.703 194.267 129.449 193.938 129.195 193.593C128.867 193.148 128.962 192.522 129.407 192.195C129.586 192.063 129.794 192 130 192H136H142C142.206 192 142.414 192.063 142.593 192.195Z" fill="#8F8881"/>
<path d="M175 186C175 185.448 174.552 185 174 185C173.448 185 173 185.448 173 186V186.449C173.38 186.328 173.786 186.242 174.215 186.18C174.463 186.144 174.725 186.115 175 186.092V186Z" fill="#8F8881"/>
<path d="M187 186.449C186.62 186.328 186.215 186.242 185.785 186.18C185.537 186.144 185.275 186.115 185 186.092V186C185 185.448 185.448 185 186 185C186.552 185 187 185.448 187 186V186.449Z" fill="#8F8881"/>
<path fill-rule="evenodd" clip-rule="evenodd" d="M181.029 186H178.971C177.023 186 175.451 186 174.215 186.18C172.925 186.367 171.857 186.768 171.018 187.675C170.189 188.57 169.833 189.693 169.664 191.049C169.5 192.369 169.5 194.054 169.5 196.174V196.826C169.5 198.946 169.5 200.631 169.664 201.951C169.833 203.307 170.189 204.43 171.018 205.325C171.857 206.232 172.925 206.633 174.215 206.82C175.451 207 177.023 207 178.971 207H181.029C182.977 207 184.549 207 185.785 206.82C187.075 206.633 188.143 206.232 188.982 205.325C189.811 204.43 190.167 203.307 190.336 201.951C190.5 200.631 190.5 198.946 190.5 196.826V196.174C190.5 194.054 190.5 192.369 190.336 191.049C190.167 189.693 189.811 188.57 188.982 187.675C188.143 186.768 187.075 186.367 185.785 186.18C184.549 186 182.977 186 181.029 186ZM172.498 193C172.039 193 171.81 193 171.664 193.144C171.518 193.288 171.515 193.515 171.509 193.968C171.5 194.641 171.5 195.394 171.5 196.243V196.757C171.5 198.962 171.502 200.522 171.649 201.705C171.793 202.866 172.063 203.509 172.486 203.967C172.9 204.414 173.465 204.69 174.503 204.841C175.579 204.997 177.004 205 179.05 205H180.95C182.996 205 184.421 204.997 185.497 204.841C186.535 204.69 187.1 204.414 187.514 203.967C187.937 203.509 188.207 202.866 188.351 201.705C188.498 200.522 188.5 198.962 188.5 196.757V196.243C188.5 195.394 188.5 194.641 188.491 193.968C188.485 193.515 188.482 193.288 188.336 193.144C188.19 193 187.961 193 187.502 193H172.498Z" fill="#8F8881"/>
<path fill-rule="evenodd" clip-rule="evenodd" d="M174.75 197C174.75 196.31 175.31 195.75 176 195.75H176.009C176.699 195.75 177.259 196.31 177.259 197C177.259 197.69 176.699 198.25 176.009 198.25H176C175.31 198.25 174.75 197.69 174.75 197ZM178.746 197C178.746 196.31 179.305 195.75 179.996 195.75H180.005C180.695 195.75 181.255 196.31 181.255 197C181.255 197.69 180.695 198.25 180.005 198.25H179.996C179.305 198.25 178.746 197.69 178.746 197ZM182.741 197C182.741 196.31 183.301 195.75 183.991 195.75H184C184.69 195.75 185.25 196.31 185.25 197C185.25 197.69 184.69 198.25 184 198.25H183.991C183.301 198.25 182.741 197.69 182.741 197ZM174.75 201C174.75 200.31 175.31 199.75 176 199.75H176.009C176.699 199.75 177.259 200.31 177.259 201C177.259 201.69 176.699 202.25 176.009 202.25H176C175.31 202.25 174.75 201.69 174.75 201ZM178.746 201C178.746 200.31 179.305 199.75 179.996 199.75H180.005C180.695 199.75 181.255 200.31 181.255 201C181.255 201.69 180.695 202.25 180.005 202.25H179.996C179.305 202.25 178.746 201.69 178.746 201Z" fill="#8F8881"/>
<path d="M229.478 193.011C229.485 193.011 229.493 193.011 229.5 193.011C231.985 193.011 234 195.029 234 197.519C234 199.84 232.25 201.751 230 202M229.478 193.011C229.492 192.846 229.5 192.679 229.5 192.51C229.5 189.467 227.038 187 224 187C221.123 187 218.762 189.213 218.52 192.032M229.478 193.011C229.375 194.148 228.929 195.185 228.243 196.017M218.52 192.032C215.984 192.274 214 194.414 214 197.018C214 199.442 215.718 201.463 218 201.927M218.52 192.032C218.678 192.017 218.838 192.009 219 192.009C220.126 192.009 221.165 192.382 222 193.011" stroke="#8F8881" stroke-width="1.5" stroke-linecap="round" stroke-linejoin="round"/>
<path d="M224 197V205M224 197C223.3 197 221.992 198.994 221.5 199.5M224 197C224.7 197 226.009 198.994 226.5 199.5" stroke="#8F8881" stroke-width="1.5" stroke-linecap="round" stroke-linejoin="round"/>
<path fill-rule="evenodd" clip-rule="evenodd" d="M265.878 192.02C266.143 192.505 265.965 193.113 265.48 193.378C264.109 194.128 262.821 195.698 261.837 197.203C261.358 197.937 260.973 198.621 260.709 199.12C260.577 199.37 260.476 199.572 260.408 199.711C260.374 199.78 260.349 199.833 260.332 199.868L260.314 199.906L260.31 199.915L260.31 199.916C260.155 200.254 259.826 200.478 259.455 200.499C259.084 200.519 258.733 200.332 258.542 200.014C258.231 199.494 257.738 199.02 257.28 198.658C257.058 198.482 256.858 198.344 256.715 198.25C256.644 198.204 256.587 198.169 256.551 198.146C256.532 198.135 256.519 198.127 256.511 198.123L256.504 198.119C256.025 197.845 255.858 197.234 256.132 196.755C256.405 196.275 257.016 196.108 257.496 196.382L257 197.25C257.496 196.382 257.495 196.381 257.496 196.382L257.497 196.383L257.5 196.384L257.506 196.387L257.525 196.399C257.541 196.408 257.563 196.421 257.59 196.438C257.644 196.47 257.719 196.517 257.811 196.577C257.993 196.696 258.243 196.87 258.52 197.089C258.733 197.257 258.97 197.459 259.209 197.691C259.466 197.23 259.787 196.685 260.163 196.11C261.18 194.553 262.692 192.623 264.52 191.623C265.005 191.358 265.613 191.536 265.878 192.02Z" fill="#8F8881"/>
<path opacity="0.4" d="M114 280C114 285.523 109.523 290 104 290C98.4772 290 94 285.523 94 280C94 274.477 98.4772 270 104 270C109.523 270 114 274.477 114 280Z" fill="#FEDF6F"/>
<path d="M114 280C114 285.523 109.523 290 104 290C98.4772 290 94 285.523 94 280C94 274.477 98.4772 270 104 270C109.523 270 114 274.477 114 280Z" stroke="#FEDF6F" stroke-width="3"/>
<path d="M104 260C103.245 260.667 102.189 262.4 104 264M104 296C104.755 296.667 105.811 298.4 104 300M119 265.005C117.937 264.94 115.851 265.446 116.008 267.997M90.9915 291C91.0573 292.063 90.5511 294.149 88 293.992M90.0054 265C89.9396 266.064 90.4463 268.153 93 267.995M116 291.005C117.063 290.943 119.149 291.422 118.992 293.834M124 280C123.333 279.245 121.6 278.189 120 280M88 279C87.3333 279.755 85.6 280.811 84 279" stroke="#FEDF6F" stroke-width="3" stroke-linecap="round"/>
<path opacity="0.4" d="M203 279C203 272.925 198.075 268 192 268C186.246 268 181.525 272.417 181.041 278.045C175.968 278.528 172 282.801 172 288C172 293.523 176.477 298 182 298H203C207.971 298 212 293.971 212 289C212 284.029 207.971 280 203 280L202.955 280C202.985 279.671 203 279.337 203 279Z" fill="#B8CEDC"/>
<path d="M202.955 280C202.97 280 202.985 280 203 280C207.971 280 212 284.029 212 289C212 293.971 207.971 298 203 298H182C176.477 298 172 293.523 172 288C172 282.801 175.968 278.528 181.041 278.045M202.955 280C202.985 279.671 203 279.337 203 279C203 272.925 198.075 268 192 268C186.246 268 181.525 272.417 181.041 278.045M202.955 280C202.751 282.269 201.857 284.339 200.486 286M181.041 278.045C181.357 278.015 181.676 278 182 278C184.252 278 186.329 278.744 188.001 280" stroke="#B8CEDC" stroke-width="3" stroke-linecap="round" stroke-linejoin="round"/>
<path d="M173.919 276.387C172.437 270.944 175.718 265.348 181.247 263.889M173.919 276.387L172 276.894M173.919 276.387C174.287 277.741 174.915 278.958 175.736 280M181.247 263.889L180.733 262M181.247 263.889C185.333 262.811 189.504 264.294 192 267.339M174.953 268.646L172.929 267.493M190.281 262.915L189.114 264.91" stroke="#B8CEDC" stroke-width="3" stroke-linecap="round"/>
<path d="M300.002 280C300.002 291.046 291.048 300 280.002 300C268.956 300 260.002 291.046 260.002 280C260.002 268.954 268.956 260 280.002 260C291.048 260 300.002 268.954 300.002 280Z" stroke="#C3B2E7" stroke-width="3"/>
<path opacity="0.4" fill-rule="evenodd" clip-rule="evenodd" d="M300.003 280C300.003 285.276 297.96 290.074 294.623 293.648L287.235 292.311L284.731 299.438C283.215 299.805 281.632 300 280.003 300C277.168 300 274.471 299.41 272.027 298.346L272.106 290.333L264.009 290.42H262.928C261.327 287.801 260.311 284.786 260.062 281.555L266.396 276.877L263.114 269.441L263.076 269.343C265.566 265.396 269.399 262.38 273.933 260.938L274.003 261L280.036 265.245L286.003 261L286.08 260.94C290.153 262.237 293.66 264.804 296.135 268.176L296.063 268.392L293.61 274.779L299.997 279.497L299.998 279.562C300.001 279.708 300.003 279.854 300.003 280ZM280.588 274.698C280.239 274.434 279.767 274.434 279.418 274.698L274.913 278.108C274.564 278.372 274.419 278.839 274.552 279.266L276.273 284.784C276.406 285.211 276.788 285.5 277.218 285.5H282.788C283.218 285.5 283.6 285.211 283.733 284.784L285.454 279.266C285.587 278.839 285.442 278.372 285.093 278.108L280.588 274.698Z" fill="#C3B2E7"/>
<path d="M279.417 274.698C279.766 274.434 280.238 274.434 280.587 274.698L285.092 278.108C285.441 278.372 285.586 278.839 285.453 279.266L283.732 284.784C283.599 285.211 283.217 285.5 282.787 285.5H277.217C276.787 285.5 276.405 285.211 276.272 284.784L274.551 279.266C274.418 278.839 274.563 278.372 274.912 278.108L279.417 274.698Z" stroke="#C3B2E7" stroke-width="3"/>
<path d="M280.002 274V266M286.002 278L294.002 275M284.002 286L288.002 292M276.002 285L272.002 290M274.002 279L266.002 277" stroke="#C3B2E7" stroke-width="3" stroke-linecap="round" stroke-linejoin="round"/>
<path d="M274.002 261L280.035 265.245L286.002 261M260.002 281.6L266.395 276.878L263.113 269.441M294.943 293.706L287.234 292.311L284.533 300M296.062 268.392L293.609 274.78L300.002 279.501M272.022 298.812L272.105 290.333L264.009 290.42" stroke="#C3B2E7" stroke-width="3" stroke-linejoin="round"/>
<path opacity="0.4" d="M388 280C388 291.046 379.046 300 368 300C356.954 300 348 291.046 348 280C348 268.954 356.954 260 368 260C379.046 260 388 268.954 388 280Z" fill="#F9A474"/>
<path d="M388 280C388 291.046 379.046 300 368 300C356.954 300 348 291.046 348 280C348 268.954 356.954 260 368 260C379.046 260 388 268.954 388 280Z" stroke="#F9A474" stroke-width="3"/>
<path d="M348 280C352.561 284.858 359.822 288 368 288C376.178 288 383.439 284.858 388 280" stroke="#F9A474" stroke-width="3"/>
<path d="M368 260V300" stroke="#F9A474" stroke-width="3" stroke-linecap="round" stroke-linejoin="round"/>
<path d="M354.311 266C353.548 269 354.08 274 357.132 278C360.342 282.206 362.365 288 354.739 294" stroke="#F9A474" stroke-width="3" stroke-linecap="round" stroke-linejoin="round"/>
<path d="M381.689 266C382.452 269 381.92 274 378.868 278C375.658 282.206 373.635 288 381.261 294" stroke="#F9A474" stroke-width="3" stroke-linecap="round" stroke-linejoin="round"/>
<path opacity="0.4" d="M453.437 269.722L462 287.998C457.667 287.998 456.348 285.712 451.826 283.427C448.209 281.598 443.159 281.903 441.652 282.284L447.715 277.998C448.332 277.561 448.64 277.343 448.739 277.011C448.837 276.679 448.698 276.328 448.419 275.626L447.57 273.49C447.253 272.691 447.094 272.292 446.808 272.002C446.708 271.901 446.597 271.811 446.478 271.734C446.137 271.511 445.714 271.436 444.868 271.286L438.366 270.132C436.997 269.889 436 268.699 436 267.309C436 265.563 437.548 264.222 439.277 264.471L448.069 265.741C449.652 265.97 450.444 266.084 451.104 266.462C451.379 266.619 451.635 266.809 451.866 267.026C452.419 267.548 452.758 268.273 453.437 269.722Z" fill="#B8CEDC"/>
<path d="M453.437 269.722L462 287.998C457.667 287.998 456.348 285.712 451.826 283.427C448.209 281.598 443.159 281.903 441.652 282.284L447.715 277.998C448.332 277.561 448.64 277.343 448.739 277.011C448.837 276.679 448.698 276.328 448.419 275.626L447.57 273.49C447.253 272.691 447.094 272.292 446.808 272.002C446.708 271.901 446.597 271.811 446.478 271.734C446.137 271.511 445.714 271.436 444.868 271.286L438.366 270.132C436.997 269.889 436 268.699 436 267.309C436 265.563 437.548 264.222 439.277 264.471L448.069 265.741C449.652 265.97 450.444 266.084 451.104 266.462C451.379 266.619 451.635 266.809 451.866 267.026C452.419 267.548 452.758 268.273 453.437 269.722Z" stroke="#B8CEDC" stroke-width="3" stroke-linecap="round" stroke-linejoin="round"/>
<path d="M470 282.004C473.314 282.004 476 279.318 476 276.004C476 272.69 473.314 270.004 470 270.004C466.686 270.004 464 272.69 464 276.004C464 279.318 466.686 282.004 470 282.004Z" stroke="#B8CEDC" stroke-width="3" stroke-linecap="round" stroke-linejoin="round"/>
<path d="M436 292.169C438.111 285.105 447.537 288.347 455 292.169C462.463 295.99 470 298.422 474 292.169" stroke="#B8CEDC" stroke-width="3" stroke-linecap="round" stroke-linejoin="round"/>
<path d="M540 264C540 266.209 541.791 268 544 268C546.209 268 548 266.209 548 264C548 261.791 546.209 260 544 260C541.791 260 540 261.791 540 264Z" stroke="#C7D78D" stroke-width="3"/>
<path opacity="0.4" d="M535.772 276C537.143 278.794 538.609 281.41 538.27 284.628C537.729 289.774 531.49 291.71 527.5 294.081C524.886 295.634 525.864 300 529.072 300C532.961 300 536.432 299.69 539.941 298.04L543.811 295.659L547.763 298.04C551.347 299.69 554.892 300 558.863 300C562.139 300 563.137 295.634 560.468 294.081C556.393 291.71 550.022 289.774 549.47 284.628C549.124 281.41 550.62 278.794 552.021 276L552.359 275.391C550.198 273.292 547.25 272 544 272C540.7 272 537.711 273.332 535.542 275.487L535.772 276Z" fill="#C7D78D"/>
<path d="M552.021 276C550.62 278.794 549.124 281.41 549.47 284.628C550.022 289.774 556.393 291.71 560.468 294.081C563.137 295.634 562.139 300 558.863 300C554.892 300 551.347 299.69 547.763 298.04L540.737 293.806C539.916 293.428 538.916 293.503 538 293.806" stroke="#C7D78D" stroke-width="3" stroke-linecap="round" stroke-linejoin="round"/>
<path d="M535.772 276C537.143 278.794 538.609 281.41 538.27 284.628C537.729 289.774 531.49 291.71 527.5 294.081C524.886 295.634 525.864 300 529.072 300C532.961 300 536.432 299.69 539.941 298.04L546.822 293.806C547.777 293.357 548.983 293.548 550 294" stroke="#C7D78D" stroke-width="3" stroke-linecap="round" stroke-linejoin="round"/>
<path d="M526 288C530.892 288 533.087 282.59 533.787 278.858C533.969 277.884 534.265 276.913 534.913 276.163C537.113 273.613 540.368 272 544 272C547.632 272 550.887 273.613 553.087 276.163C553.735 276.913 554.031 277.884 554.213 278.858C554.913 282.59 557.108 288 562 288" stroke="#C7D78D" stroke-width="3" stroke-linecap="round" stroke-linejoin="round"/>
<path d="M652.002 280C652.002 291.046 643.048 300 632.002 300C620.956 300 612.002 291.046 612.002 280C612.002 268.954 620.956 260 632.002 260C643.048 260 652.002 268.954 652.002 280Z" stroke="#FEDF6F" stroke-width="3"/>
<path opacity="0.4" d="M626.002 272.002C630.176 268.229 640.654 266.258 649.002 270.03L649.45 270.218C651.075 273.11 652.002 276.448 652.002 280.002C652.002 280.232 651.998 280.462 651.99 280.691C651.994 280.694 651.998 280.698 652.002 280.701L651.988 280.76C651.989 280.737 651.99 280.714 651.99 280.691C649.715 278.635 646.25 277.474 641.674 277.471L641.779 278.002C642.957 283.791 639.431 294.378 632.002 300.002C627.822 300.002 623.941 298.719 620.732 296.526L622.002 296.002C623.891 295.145 626.543 293.217 628.565 290.315L628.002 290.002C622.751 287.481 616.319 277.921 616.002 268.002L616.191 267.752C618.315 265.014 621.134 262.844 624.383 261.504L624.243 262.002C623.665 264.098 623.537 268.163 625.648 272.351L626.002 272.002Z" fill="#FEDF6F"/>
<path d="M624.243 262C623.351 265.238 623.529 273.171 631.377 279M631.377 279C641.261 276.34 648.252 277.3 652.002 280.7M631.377 279C632.507 288.376 625.752 294.3 622.002 296" stroke="#FEDF6F" stroke-width="3" stroke-linecap="round" stroke-linejoin="round"/>
<path d="M626.002 272C630.176 268.228 640.654 266.257 649.002 270.029" stroke="#FEDF6F" stroke-width="3" stroke-linejoin="round"/>
<path d="M641.779 278C642.957 283.789 639.431 294.377 632.002 300" stroke="#FEDF6F" stroke-width="3" stroke-linejoin="round"/>
<path d="M628.002 290C622.751 287.479 616.319 277.919 616.002 268" stroke="#FEDF6F" stroke-width="3" stroke-linejoin="round"/>
<path opacity="0.4" d="M736.284 277.591C739.215 275.528 739.879 271.544 737.769 268.683C732.99 262.206 724 257.834 716.984 263.884C714.327 266.176 712.212 268.987 710.798 272.2L708.002 278.555V279C708.002 284.541 714.855 290.995 720.811 292.939C720.939 292.981 721.069 293.01 721.201 293.029C721.971 292.462 722.817 292.008 723.811 291.766L733.705 289.356C738.788 288.119 740.05 281.649 735.786 278.682L735.133 278.241C735.667 277.973 736.016 277.78 736.284 277.591Z" fill="#F682A5"/>
<path d="M707.965 278.492C707.791 283.937 714.207 290.649 720.223 292.758M707.965 278.492C707.356 279.538 701.134 284.525 701.026 286.638C700.499 290.834 707.627 298.716 713.123 298.985C715.175 299.276 718.022 295.822 720.908 293.256C722.497 291.843 724.788 291.516 733.957 289.241C737.284 288.662 741.281 282.923 735.355 278.058M707.965 278.492C709.822 274.09 713.031 265.579 719.325 262.219C721.881 260.766 728.52 259.429 735.025 265.614C737.263 267.496 741.142 271.619 737.532 276.369C735.124 279.175 731.484 278.362 731.131 283.215" stroke="#F682A5" stroke-width="3" stroke-linecap="round" stroke-linejoin="round"/>
<rect x="80" y="352" width="397" height="58" rx="8" fill="#E1E1E6"/>
<path d="M103.93 388.192C103.088 388.192 102.298 388.043 101.562 387.744C100.826 387.435 100.181 387.003 99.6263 386.448C99.0823 385.893 98.6556 385.243 98.3463 384.496C98.0369 383.739 97.8823 382.917 97.8823 382.032C97.8823 381.136 98.0369 380.315 98.3463 379.568C98.6556 378.821 99.0823 378.171 99.6263 377.616C100.181 377.061 100.821 376.635 101.546 376.336C102.282 376.037 103.077 375.888 103.93 375.888C104.784 375.888 105.573 376.043 106.298 376.352C107.034 376.651 107.674 377.077 108.218 377.632C108.773 378.176 109.205 378.821 109.514 379.568C109.834 380.315 109.994 381.136 109.994 382.032C109.994 382.917 109.834 383.739 109.514 384.496C109.205 385.243 108.773 385.893 108.218 386.448C107.674 387.003 107.034 387.435 106.298 387.744C105.573 388.043 104.784 388.192 103.93 388.192ZM103.93 386.736C104.592 386.736 105.194 386.619 105.738 386.384C106.282 386.139 106.752 385.803 107.146 385.376C107.552 384.939 107.861 384.437 108.074 383.872C108.298 383.296 108.41 382.683 108.41 382.032C108.41 381.381 108.298 380.773 108.074 380.208C107.861 379.643 107.552 379.147 107.146 378.72C106.752 378.283 106.282 377.947 105.738 377.712C105.194 377.467 104.592 377.344 103.93 377.344C103.28 377.344 102.682 377.467 102.138 377.712C101.594 377.947 101.12 378.283 100.714 378.72C100.32 379.147 100.01 379.643 99.7863 380.208C99.5623 380.773 99.4503 381.381 99.4503 382.032C99.4503 382.683 99.5623 383.296 99.7863 383.872C100.01 384.437 100.32 384.939 100.714 385.376C101.12 385.803 101.594 386.139 102.138 386.384C102.682 386.619 103.28 386.736 103.93 386.736ZM115.193 388.192C114.329 388.192 113.577 387.979 112.937 387.552C112.297 387.125 111.844 386.549 111.577 385.824L112.761 385.248C113.006 385.76 113.342 386.165 113.769 386.464C114.196 386.763 114.67 386.912 115.193 386.912C115.662 386.912 116.052 386.8 116.361 386.576C116.67 386.352 116.825 386.059 116.825 385.696C116.825 385.44 116.75 385.237 116.601 385.088C116.462 384.928 116.292 384.805 116.089 384.72C115.886 384.624 115.7 384.555 115.529 384.512L114.233 384.144C113.454 383.92 112.884 383.6 112.521 383.184C112.169 382.768 111.993 382.283 111.993 381.728C111.993 381.216 112.121 380.773 112.377 380.4C112.644 380.016 113.001 379.717 113.449 379.504C113.908 379.291 114.42 379.184 114.985 379.184C115.742 379.184 116.42 379.376 117.017 379.76C117.625 380.144 118.057 380.683 118.313 381.376L117.097 381.936C116.905 381.488 116.617 381.136 116.233 380.88C115.849 380.613 115.417 380.48 114.937 380.48C114.5 380.48 114.153 380.592 113.897 380.816C113.641 381.029 113.513 381.301 113.513 381.632C113.513 381.877 113.577 382.08 113.705 382.24C113.833 382.389 113.988 382.507 114.169 382.592C114.35 382.667 114.526 382.731 114.697 382.784L116.105 383.2C116.809 383.403 117.353 383.717 117.737 384.144C118.132 384.571 118.329 385.083 118.329 385.68C118.329 386.16 118.196 386.592 117.929 386.976C117.662 387.36 117.294 387.659 116.825 387.872C116.356 388.085 115.812 388.192 115.193 388.192ZM122.819 388V379.376H124.307V388H122.819ZM122.819 377.76L124.083 375.232H126.099L124.307 377.76H122.819ZM130.386 388.192C129.544 388.192 128.792 387.995 128.13 387.6C127.48 387.205 126.968 386.667 126.594 385.984C126.221 385.301 126.034 384.533 126.034 383.68C126.034 382.816 126.221 382.048 126.594 381.376C126.968 380.704 127.48 380.171 128.13 379.776C128.792 379.381 129.544 379.184 130.386 379.184C130.952 379.184 131.48 379.285 131.97 379.488C132.461 379.691 132.893 379.963 133.266 380.304C133.64 380.645 133.912 381.045 134.082 381.504L132.754 382.144C132.552 381.696 132.242 381.333 131.826 381.056C131.41 380.768 130.93 380.624 130.386 380.624C129.864 380.624 129.389 380.757 128.962 381.024C128.546 381.291 128.216 381.653 127.97 382.112C127.725 382.571 127.602 383.099 127.602 383.696C127.602 384.272 127.725 384.795 127.97 385.264C128.216 385.723 128.546 386.085 128.962 386.352C129.389 386.619 129.864 386.752 130.386 386.752C130.93 386.752 131.41 386.613 131.826 386.336C132.242 386.048 132.552 385.669 132.754 385.2L134.082 385.872C133.912 386.32 133.64 386.72 133.266 387.072C132.893 387.413 132.461 387.685 131.97 387.888C131.48 388.091 130.952 388.192 130.386 388.192ZM140.123 388.192C139.291 388.192 138.539 388 137.867 387.616C137.195 387.221 136.662 386.683 136.267 386C135.872 385.317 135.675 384.544 135.675 383.68C135.675 382.816 135.867 382.048 136.251 381.376C136.646 380.704 137.179 380.171 137.851 379.776C138.523 379.381 139.28 379.184 140.123 379.184C140.955 379.184 141.707 379.381 142.379 379.776C143.051 380.16 143.579 380.688 143.963 381.36C144.358 382.032 144.555 382.805 144.555 383.68C144.555 384.555 144.352 385.333 143.947 386.016C143.542 386.688 143.003 387.221 142.331 387.616C141.67 388 140.934 388.192 140.123 388.192ZM140.123 386.752C140.656 386.752 141.136 386.619 141.563 386.352C142 386.085 142.342 385.717 142.587 385.248C142.843 384.779 142.971 384.256 142.971 383.68C142.971 383.093 142.843 382.576 142.587 382.128C142.342 381.669 142 381.307 141.563 381.04C141.136 380.763 140.656 380.624 140.123 380.624C139.579 380.624 139.088 380.763 138.651 381.04C138.224 381.307 137.883 381.669 137.627 382.128C137.371 382.576 137.243 383.093 137.243 383.68C137.243 384.256 137.371 384.779 137.627 385.248C137.883 385.717 138.224 386.085 138.651 386.352C139.088 386.619 139.579 386.752 140.123 386.752ZM146.496 388V379.376H147.952V381.056L147.712 380.912C147.925 380.368 148.266 379.947 148.736 379.648C149.216 379.339 149.776 379.184 150.416 379.184C151.034 379.184 151.584 379.323 152.064 379.6C152.554 379.877 152.938 380.261 153.216 380.752C153.504 381.243 153.648 381.797 153.648 382.416V388H152.144V382.896C152.144 382.416 152.058 382.011 151.888 381.68C151.717 381.349 151.472 381.093 151.152 380.912C150.842 380.72 150.485 380.624 150.08 380.624C149.674 380.624 149.312 380.72 148.992 380.912C148.682 381.093 148.437 381.355 148.256 381.696C148.074 382.027 147.984 382.427 147.984 382.896V388H146.496ZM159.745 388.192C158.913 388.192 158.172 387.995 157.521 387.6C156.87 387.205 156.358 386.667 155.985 385.984C155.612 385.291 155.425 384.517 155.425 383.664C155.425 382.8 155.606 382.032 155.969 381.36C156.342 380.688 156.844 380.16 157.473 379.776C158.113 379.381 158.828 379.184 159.617 379.184C160.257 379.184 160.822 379.301 161.313 379.536C161.814 379.76 162.236 380.069 162.577 380.464C162.929 380.848 163.196 381.291 163.377 381.792C163.569 382.283 163.665 382.795 163.665 383.328C163.665 383.445 163.654 383.579 163.633 383.728C163.622 383.867 163.606 384 163.585 384.128H156.513V382.848H162.721L162.017 383.424C162.113 382.869 162.06 382.373 161.857 381.936C161.654 381.499 161.356 381.152 160.961 380.896C160.566 380.64 160.118 380.512 159.617 380.512C159.116 380.512 158.657 380.64 158.241 380.896C157.825 381.152 157.5 381.52 157.265 382C157.041 382.469 156.95 383.029 156.993 383.68C156.95 384.309 157.046 384.864 157.281 385.344C157.526 385.813 157.868 386.181 158.305 386.448C158.753 386.704 159.238 386.832 159.761 386.832C160.337 386.832 160.822 386.699 161.217 386.432C161.612 386.165 161.932 385.824 162.177 385.408L163.425 386.048C163.254 386.443 162.988 386.805 162.625 387.136C162.273 387.456 161.852 387.712 161.361 387.904C160.881 388.096 160.342 388.192 159.745 388.192ZM168.693 388.192C167.829 388.192 167.077 387.979 166.437 387.552C165.797 387.125 165.344 386.549 165.077 385.824L166.261 385.248C166.506 385.76 166.842 386.165 167.269 386.464C167.696 386.763 168.17 386.912 168.693 386.912C169.162 386.912 169.552 386.8 169.861 386.576C170.17 386.352 170.325 386.059 170.325 385.696C170.325 385.44 170.25 385.237 170.101 385.088C169.962 384.928 169.792 384.805 169.589 384.72C169.386 384.624 169.2 384.555 169.029 384.512L167.733 384.144C166.954 383.92 166.384 383.6 166.021 383.184C165.669 382.768 165.493 382.283 165.493 381.728C165.493 381.216 165.621 380.773 165.877 380.4C166.144 380.016 166.501 379.717 166.949 379.504C167.408 379.291 167.92 379.184 168.485 379.184C169.242 379.184 169.92 379.376 170.517 379.76C171.125 380.144 171.557 380.683 171.813 381.376L170.597 381.936C170.405 381.488 170.117 381.136 169.733 380.88C169.349 380.613 168.917 380.48 168.437 380.48C168 380.48 167.653 380.592 167.397 380.816C167.141 381.029 167.013 381.301 167.013 381.632C167.013 381.877 167.077 382.08 167.205 382.24C167.333 382.389 167.488 382.507 167.669 382.592C167.85 382.667 168.026 382.731 168.197 382.784L169.605 383.2C170.309 383.403 170.853 383.717 171.237 384.144C171.632 384.571 171.829 385.083 171.829 385.68C171.829 386.16 171.696 386.592 171.429 386.976C171.162 387.36 170.794 387.659 170.325 387.872C169.856 388.085 169.312 388.192 168.693 388.192ZM176.543 391.2V379.376H177.999V381.232L177.807 380.864C178.127 380.352 178.564 379.947 179.119 379.648C179.673 379.339 180.308 379.184 181.023 379.184C181.833 379.184 182.559 379.381 183.199 379.776C183.849 380.171 184.361 380.709 184.735 381.392C185.108 382.064 185.295 382.832 185.295 383.696C185.295 384.539 185.108 385.301 184.735 385.984C184.361 386.667 183.849 387.205 183.199 387.6C182.559 387.995 181.828 388.192 181.007 388.192C180.313 388.192 179.679 388.037 179.103 387.728C178.537 387.419 178.1 386.981 177.791 386.416L178.031 386.16V391.2H176.543ZM180.895 386.752C181.439 386.752 181.924 386.619 182.351 386.352C182.777 386.085 183.108 385.723 183.343 385.264C183.588 384.795 183.711 384.272 183.711 383.696C183.711 383.099 183.588 382.576 183.343 382.128C183.108 381.669 182.777 381.307 182.351 381.04C181.924 380.763 181.439 380.624 180.895 380.624C180.351 380.624 179.86 380.757 179.423 381.024C178.996 381.291 178.655 381.659 178.399 382.128C178.153 382.587 178.031 383.109 178.031 383.696C178.031 384.272 178.153 384.795 178.399 385.264C178.655 385.723 178.996 386.085 179.423 386.352C179.86 386.619 180.351 386.752 180.895 386.752ZM191.342 388.192C190.51 388.192 189.758 388 189.086 387.616C188.414 387.221 187.88 386.683 187.486 386C187.091 385.317 186.894 384.544 186.894 383.68C186.894 382.816 187.086 382.048 187.47 381.376C187.864 380.704 188.398 380.171 189.07 379.776C189.742 379.381 190.499 379.184 191.342 379.184C192.174 379.184 192.926 379.381 193.598 379.776C194.27 380.16 194.798 380.688 195.182 381.36C195.576 382.032 195.774 382.805 195.774 383.68C195.774 384.555 195.571 385.333 195.166 386.016C194.76 386.688 194.222 387.221 193.55 387.616C192.888 388 192.152 388.192 191.342 388.192ZM191.342 386.752C191.875 386.752 192.355 386.619 192.782 386.352C193.219 386.085 193.56 385.717 193.806 385.248C194.062 384.779 194.19 384.256 194.19 383.68C194.19 383.093 194.062 382.576 193.806 382.128C193.56 381.669 193.219 381.307 192.782 381.04C192.355 380.763 191.875 380.624 191.342 380.624C190.798 380.624 190.307 380.763 189.87 381.04C189.443 381.307 189.102 381.669 188.846 382.128C188.59 382.576 188.462 383.093 188.462 383.68C188.462 384.256 188.59 384.779 188.846 385.248C189.102 385.717 189.443 386.085 189.87 386.352C190.307 386.619 190.798 386.752 191.342 386.752ZM201.635 388.192C200.824 388.192 200.093 387.995 199.443 387.6C198.803 387.205 198.296 386.667 197.923 385.984C197.549 385.301 197.363 384.539 197.363 383.696C197.363 382.832 197.549 382.064 197.923 381.392C198.296 380.709 198.803 380.171 199.443 379.776C200.093 379.381 200.824 379.184 201.635 379.184C202.349 379.184 202.984 379.339 203.539 379.648C204.093 379.947 204.531 380.352 204.851 380.864L204.611 381.232V375.888H206.115V388H204.659V386.16L204.851 386.416C204.552 386.981 204.115 387.419 203.539 387.728C202.973 388.037 202.339 388.192 201.635 388.192ZM201.763 386.752C202.307 386.752 202.792 386.619 203.219 386.352C203.645 386.085 203.981 385.723 204.227 385.264C204.483 384.795 204.611 384.272 204.611 383.696C204.611 383.109 204.483 382.587 204.227 382.128C203.981 381.659 203.645 381.291 203.219 381.024C202.792 380.757 202.307 380.624 201.763 380.624C201.229 380.624 200.744 380.763 200.307 381.04C199.88 381.307 199.544 381.669 199.299 382.128C199.053 382.576 198.931 383.099 198.931 383.696C198.931 384.272 199.053 384.795 199.299 385.264C199.544 385.723 199.88 386.085 200.307 386.352C200.733 386.619 201.219 386.752 201.763 386.752ZM212.386 388.192C211.554 388.192 210.812 387.995 210.162 387.6C209.511 387.205 208.999 386.667 208.626 385.984C208.252 385.291 208.066 384.517 208.066 383.664C208.066 382.8 208.247 382.032 208.61 381.36C208.983 380.688 209.484 380.16 210.114 379.776C210.754 379.381 211.468 379.184 212.258 379.184C212.898 379.184 213.463 379.301 213.954 379.536C214.455 379.76 214.876 380.069 215.218 380.464C215.57 380.848 215.836 381.291 216.018 381.792C216.21 382.283 216.306 382.795 216.306 383.328C216.306 383.445 216.295 383.579 216.274 383.728C216.263 383.867 216.247 384 216.226 384.128H209.154V382.848H215.362L214.658 383.424C214.754 382.869 214.7 382.373 214.498 381.936C214.295 381.499 213.996 381.152 213.602 380.896C213.207 380.64 212.759 380.512 212.258 380.512C211.756 380.512 211.298 380.64 210.882 380.896C210.466 381.152 210.14 381.52 209.906 382C209.682 382.469 209.591 383.029 209.634 383.68C209.591 384.309 209.687 384.864 209.922 385.344C210.167 385.813 210.508 386.181 210.946 386.448C211.394 386.704 211.879 386.832 212.402 386.832C212.978 386.832 213.463 386.699 213.858 386.432C214.252 386.165 214.572 385.824 214.818 385.408L216.066 386.048C215.895 386.443 215.628 386.805 215.266 387.136C214.914 387.456 214.492 387.712 214.002 387.904C213.522 388.096 212.983 388.192 212.386 388.192ZM218.246 388V379.376H219.702V381.136L219.494 380.864C219.707 380.32 220.048 379.904 220.518 379.616C220.987 379.328 221.515 379.184 222.102 379.184C222.774 379.184 223.376 379.371 223.91 379.744C224.454 380.117 224.827 380.608 225.03 381.216L224.614 381.232C224.838 380.56 225.216 380.053 225.75 379.712C226.283 379.36 226.875 379.184 227.526 379.184C228.123 379.184 228.662 379.323 229.142 379.6C229.632 379.877 230.022 380.261 230.31 380.752C230.598 381.243 230.742 381.797 230.742 382.416V388H229.238V382.896C229.238 382.416 229.152 382.011 228.982 381.68C228.811 381.349 228.576 381.093 228.278 380.912C227.99 380.72 227.648 380.624 227.254 380.624C226.87 380.624 226.523 380.72 226.214 380.912C225.915 381.093 225.675 381.355 225.494 381.696C225.323 382.027 225.238 382.427 225.238 382.896V388H223.734V382.896C223.734 382.416 223.648 382.011 223.478 381.68C223.307 381.349 223.072 381.093 222.774 380.912C222.486 380.72 222.144 380.624 221.75 380.624C221.366 380.624 221.019 380.72 220.71 380.912C220.411 381.093 220.171 381.355 219.99 381.696C219.819 382.027 219.734 382.427 219.734 382.896V388H218.246ZM238.709 388.192C237.845 388.192 237.093 387.979 236.453 387.552C235.813 387.125 235.359 386.549 235.093 385.824L236.277 385.248C236.522 385.76 236.858 386.165 237.285 386.464C237.711 386.763 238.186 386.912 238.709 386.912C239.178 386.912 239.567 386.8 239.877 386.576C240.186 386.352 240.341 386.059 240.341 385.696C240.341 385.44 240.266 385.237 240.117 385.088C239.978 384.928 239.807 384.805 239.605 384.72C239.402 384.624 239.215 384.555 239.045 384.512L237.749 384.144C236.97 383.92 236.399 383.6 236.037 383.184C235.685 382.768 235.509 382.283 235.509 381.728C235.509 381.216 235.637 380.773 235.893 380.4C236.159 380.016 236.517 379.717 236.965 379.504C237.423 379.291 237.935 379.184 238.501 379.184C239.258 379.184 239.935 379.376 240.533 379.76C241.141 380.144 241.573 380.683 241.829 381.376L240.613 381.936C240.421 381.488 240.133 381.136 239.749 380.88C239.365 380.613 238.933 380.48 238.453 380.48C238.015 380.48 237.669 380.592 237.413 380.816C237.157 381.029 237.029 381.301 237.029 381.632C237.029 381.877 237.093 382.08 237.221 382.24C237.349 382.389 237.503 382.507 237.685 382.592C237.866 382.667 238.042 382.731 238.213 382.784L239.621 383.2C240.325 383.403 240.869 383.717 241.253 384.144C241.647 384.571 241.845 385.083 241.845 385.68C241.845 386.16 241.711 386.592 241.445 386.976C241.178 387.36 240.81 387.659 240.341 387.872C239.871 388.085 239.327 388.192 238.709 388.192ZM247.761 388.192C246.929 388.192 246.187 387.995 245.537 387.6C244.886 387.205 244.374 386.667 244.001 385.984C243.627 385.291 243.441 384.517 243.441 383.664C243.441 382.8 243.622 382.032 243.985 381.36C244.358 380.688 244.859 380.16 245.489 379.776C246.129 379.381 246.843 379.184 247.633 379.184C248.273 379.184 248.838 379.301 249.329 379.536C249.83 379.76 250.251 380.069 250.593 380.464C250.945 380.848 251.211 381.291 251.393 381.792C251.585 382.283 251.681 382.795 251.681 383.328C251.681 383.445 251.67 383.579 251.649 383.728C251.638 383.867 251.622 384 251.601 384.128H244.529V382.848H250.737L250.033 383.424C250.129 382.869 250.075 382.373 249.873 381.936C249.67 381.499 249.371 381.152 248.977 380.896C248.582 380.64 248.134 380.512 247.633 380.512C247.131 380.512 246.673 380.64 246.257 380.896C245.841 381.152 245.515 381.52 245.281 382C245.057 382.469 244.966 383.029 245.009 383.68C244.966 384.309 245.062 384.864 245.297 385.344C245.542 385.813 245.883 386.181 246.321 386.448C246.769 386.704 247.254 386.832 247.777 386.832C248.353 386.832 248.838 386.699 249.233 386.432C249.627 386.165 249.947 385.824 250.193 385.408L251.441 386.048C251.27 386.443 251.003 386.805 250.641 387.136C250.289 387.456 249.867 387.712 249.377 387.904C248.897 388.096 248.358 388.192 247.761 388.192ZM253.621 388V379.376H255.077V380.96L254.917 380.736C255.119 380.245 255.429 379.883 255.845 379.648C256.261 379.403 256.767 379.28 257.365 379.28H257.893V380.688H257.141C256.533 380.688 256.042 380.88 255.669 381.264C255.295 381.637 255.109 382.171 255.109 382.864V388H253.621ZM264.508 388.192C263.943 388.192 263.441 388.091 263.004 387.888C262.577 387.675 262.241 387.387 261.996 387.024C261.751 386.651 261.628 386.224 261.628 385.744C261.628 385.285 261.724 384.875 261.916 384.512C262.119 384.139 262.428 383.824 262.844 383.568C263.271 383.312 263.804 383.131 264.444 383.024L267.644 382.496V383.744L264.78 384.224C264.225 384.32 263.82 384.496 263.564 384.752C263.319 385.008 263.196 385.323 263.196 385.696C263.196 386.048 263.335 386.341 263.612 386.576C263.9 386.811 264.257 386.928 264.684 386.928C265.228 386.928 265.697 386.816 266.092 386.592C266.497 386.357 266.812 386.043 267.036 385.648C267.271 385.253 267.388 384.816 267.388 384.336V382.144C267.388 381.675 267.212 381.296 266.86 381.008C266.519 380.709 266.065 380.56 265.5 380.56C265.009 380.56 264.572 380.688 264.188 380.944C263.815 381.189 263.537 381.52 263.356 381.936L262.06 381.264C262.22 380.869 262.476 380.517 262.828 380.208C263.18 379.888 263.591 379.637 264.06 379.456C264.529 379.275 265.02 379.184 265.532 379.184C266.193 379.184 266.775 379.312 267.276 379.568C267.777 379.813 268.167 380.16 268.444 380.608C268.732 381.045 268.876 381.557 268.876 382.144V388H267.42V386.368L267.692 386.464C267.511 386.805 267.265 387.104 266.956 387.36C266.647 387.616 266.284 387.819 265.868 387.968C265.452 388.117 264.999 388.192 264.508 388.192ZM275.183 388.192C274.341 388.192 273.589 387.995 272.927 387.6C272.277 387.205 271.765 386.667 271.391 385.984C271.018 385.301 270.831 384.533 270.831 383.68C270.831 382.816 271.018 382.048 271.391 381.376C271.765 380.704 272.277 380.171 272.927 379.776C273.589 379.381 274.341 379.184 275.183 379.184C275.749 379.184 276.277 379.285 276.767 379.488C277.258 379.691 277.69 379.963 278.063 380.304C278.437 380.645 278.709 381.045 278.879 381.504L277.551 382.144C277.349 381.696 277.039 381.333 276.623 381.056C276.207 380.768 275.727 380.624 275.183 380.624C274.661 380.624 274.186 380.757 273.759 381.024C273.343 381.291 273.013 381.653 272.767 382.112C272.522 382.571 272.399 383.099 272.399 383.696C272.399 384.272 272.522 384.795 272.767 385.264C273.013 385.723 273.343 386.085 273.759 386.352C274.186 386.619 274.661 386.752 275.183 386.752C275.727 386.752 276.207 386.613 276.623 386.336C277.039 386.048 277.349 385.669 277.551 385.2L278.879 385.872C278.709 386.32 278.437 386.72 278.063 387.072C277.69 387.413 277.258 387.685 276.767 387.888C276.277 388.091 275.749 388.192 275.183 388.192ZM284.792 388.192C283.96 388.192 283.219 387.995 282.568 387.6C281.917 387.205 281.405 386.667 281.032 385.984C280.659 385.291 280.472 384.517 280.472 383.664C280.472 382.8 280.653 382.032 281.016 381.36C281.389 380.688 281.891 380.16 282.52 379.776C283.16 379.381 283.875 379.184 284.664 379.184C285.304 379.184 285.869 379.301 286.36 379.536C286.861 379.76 287.283 380.069 287.624 380.464C287.976 380.848 288.243 381.291 288.424 381.792C288.616 382.283 288.712 382.795 288.712 383.328C288.712 383.445 288.701 383.579 288.68 383.728C288.669 383.867 288.653 384 288.632 384.128H281.56V382.848H287.768L287.064 383.424C287.16 382.869 287.107 382.373 286.904 381.936C286.701 381.499 286.403 381.152 286.008 380.896C285.613 380.64 285.165 380.512 284.664 380.512C284.163 380.512 283.704 380.64 283.288 380.896C282.872 381.152 282.547 381.52 282.312 382C282.088 382.469 281.997 383.029 282.04 383.68C281.997 384.309 282.093 384.864 282.328 385.344C282.573 385.813 282.915 386.181 283.352 386.448C283.8 386.704 284.285 386.832 284.808 386.832C285.384 386.832 285.869 386.699 286.264 386.432C286.659 386.165 286.979 385.824 287.224 385.408L288.472 386.048C288.301 386.443 288.035 386.805 287.672 387.136C287.32 387.456 286.899 387.712 286.408 387.904C285.928 388.096 285.389 388.192 284.792 388.192ZM293.74 388.192C292.876 388.192 292.124 387.979 291.484 387.552C290.844 387.125 290.391 386.549 290.124 385.824L291.308 385.248C291.553 385.76 291.889 386.165 292.316 386.464C292.743 386.763 293.217 386.912 293.74 386.912C294.209 386.912 294.599 386.8 294.908 386.576C295.217 386.352 295.372 386.059 295.372 385.696C295.372 385.44 295.297 385.237 295.148 385.088C295.009 384.928 294.839 384.805 294.636 384.72C294.433 384.624 294.247 384.555 294.076 384.512L292.78 384.144C292.001 383.92 291.431 383.6 291.068 383.184C290.716 382.768 290.54 382.283 290.54 381.728C290.54 381.216 290.668 380.773 290.924 380.4C291.191 380.016 291.548 379.717 291.996 379.504C292.455 379.291 292.967 379.184 293.532 379.184C294.289 379.184 294.967 379.376 295.564 379.76C296.172 380.144 296.604 380.683 296.86 381.376L295.644 381.936C295.452 381.488 295.164 381.136 294.78 380.88C294.396 380.613 293.964 380.48 293.484 380.48C293.047 380.48 292.7 380.592 292.444 380.816C292.188 381.029 292.06 381.301 292.06 381.632C292.06 381.877 292.124 382.08 292.252 382.24C292.38 382.389 292.535 382.507 292.716 382.592C292.897 382.667 293.073 382.731 293.244 382.784L294.652 383.2C295.356 383.403 295.9 383.717 296.284 384.144C296.679 384.571 296.876 385.083 296.876 385.68C296.876 386.16 296.743 386.592 296.476 386.976C296.209 387.36 295.841 387.659 295.372 387.872C294.903 388.085 294.359 388.192 293.74 388.192ZM301.912 388.192C301.048 388.192 300.296 387.979 299.656 387.552C299.016 387.125 298.563 386.549 298.296 385.824L299.48 385.248C299.725 385.76 300.061 386.165 300.488 386.464C300.915 386.763 301.389 386.912 301.912 386.912C302.381 386.912 302.771 386.8 303.08 386.576C303.389 386.352 303.544 386.059 303.544 385.696C303.544 385.44 303.469 385.237 303.32 385.088C303.181 384.928 303.011 384.805 302.808 384.72C302.605 384.624 302.419 384.555 302.248 384.512L300.952 384.144C300.173 383.92 299.603 383.6 299.24 383.184C298.888 382.768 298.712 382.283 298.712 381.728C298.712 381.216 298.84 380.773 299.096 380.4C299.363 380.016 299.72 379.717 300.168 379.504C300.627 379.291 301.139 379.184 301.704 379.184C302.461 379.184 303.139 379.376 303.736 379.76C304.344 380.144 304.776 380.683 305.032 381.376L303.816 381.936C303.624 381.488 303.336 381.136 302.952 380.88C302.568 380.613 302.136 380.48 301.656 380.48C301.219 380.48 300.872 380.592 300.616 380.816C300.36 381.029 300.232 381.301 300.232 381.632C300.232 381.877 300.296 382.08 300.424 382.24C300.552 382.389 300.707 382.507 300.888 382.592C301.069 382.667 301.245 382.731 301.416 382.784L302.824 383.2C303.528 383.403 304.072 383.717 304.456 384.144C304.851 384.571 305.048 385.083 305.048 385.68C305.048 386.16 304.915 386.592 304.648 386.976C304.381 387.36 304.013 387.659 303.544 387.872C303.075 388.085 302.531 388.192 301.912 388.192ZM309.524 388.192C308.958 388.192 308.457 388.091 308.02 387.888C307.593 387.675 307.257 387.387 307.012 387.024C306.766 386.651 306.644 386.224 306.644 385.744C306.644 385.285 306.74 384.875 306.932 384.512C307.134 384.139 307.444 383.824 307.86 383.568C308.286 383.312 308.82 383.131 309.46 383.024L312.66 382.496V383.744L309.796 384.224C309.241 384.32 308.836 384.496 308.58 384.752C308.334 385.008 308.212 385.323 308.212 385.696C308.212 386.048 308.35 386.341 308.628 386.576C308.916 386.811 309.273 386.928 309.7 386.928C310.244 386.928 310.713 386.816 311.108 386.592C311.513 386.357 311.828 386.043 312.052 385.648C312.286 385.253 312.404 384.816 312.404 384.336V382.144C312.404 381.675 312.228 381.296 311.876 381.008C311.534 380.709 311.081 380.56 310.516 380.56C310.025 380.56 309.588 380.688 309.204 380.944C308.83 381.189 308.553 381.52 308.372 381.936L307.076 381.264C307.236 380.869 307.492 380.517 307.844 380.208C308.196 379.888 308.606 379.637 309.076 379.456C309.545 379.275 310.036 379.184 310.548 379.184C311.209 379.184 311.79 379.312 312.292 379.568C312.793 379.813 313.182 380.16 313.46 380.608C313.748 381.045 313.892 381.557 313.892 382.144V388H312.436V386.368L312.708 386.464C312.526 386.805 312.281 387.104 311.972 387.36C311.662 387.616 311.3 387.819 310.884 387.968C310.468 388.117 310.014 388.192 309.524 388.192ZM320.119 388.192C319.308 388.192 318.578 387.995 317.927 387.6C317.287 387.205 316.78 386.667 316.407 385.984C316.034 385.301 315.847 384.539 315.847 383.696C315.847 382.832 316.034 382.064 316.407 381.392C316.78 380.709 317.287 380.171 317.927 379.776C318.578 379.381 319.308 379.184 320.119 379.184C320.834 379.184 321.468 379.339 322.023 379.648C322.578 379.947 323.015 380.352 323.335 380.864L323.095 381.232V375.888H324.599V388H323.143V386.16L323.335 386.416C323.036 386.981 322.599 387.419 322.023 387.728C321.458 388.037 320.823 388.192 320.119 388.192ZM320.247 386.752C320.791 386.752 321.276 386.619 321.703 386.352C322.13 386.085 322.466 385.723 322.711 385.264C322.967 384.795 323.095 384.272 323.095 383.696C323.095 383.109 322.967 382.587 322.711 382.128C322.466 381.659 322.13 381.291 321.703 381.024C321.276 380.757 320.791 380.624 320.247 380.624C319.714 380.624 319.228 380.763 318.791 381.04C318.364 381.307 318.028 381.669 317.783 382.128C317.538 382.576 317.415 383.099 317.415 383.696C317.415 384.272 317.538 384.795 317.783 385.264C318.028 385.723 318.364 386.085 318.791 386.352C319.218 386.619 319.703 386.752 320.247 386.752ZM330.998 388.192C330.166 388.192 329.414 388 328.742 387.616C328.07 387.221 327.537 386.683 327.142 386C326.747 385.317 326.55 384.544 326.55 383.68C326.55 382.816 326.742 382.048 327.126 381.376C327.521 380.704 328.054 380.171 328.726 379.776C329.398 379.381 330.155 379.184 330.998 379.184C331.83 379.184 332.582 379.381 333.254 379.776C333.926 380.16 334.454 380.688 334.838 381.36C335.233 382.032 335.43 382.805 335.43 383.68C335.43 384.555 335.227 385.333 334.822 386.016C334.417 386.688 333.878 387.221 333.206 387.616C332.545 388 331.809 388.192 330.998 388.192ZM330.998 386.752C331.531 386.752 332.011 386.619 332.438 386.352C332.875 386.085 333.217 385.717 333.462 385.248C333.718 384.779 333.846 384.256 333.846 383.68C333.846 383.093 333.718 382.576 333.462 382.128C333.217 381.669 332.875 381.307 332.438 381.04C332.011 380.763 331.531 380.624 330.998 380.624C330.454 380.624 329.963 380.763 329.526 381.04C329.099 381.307 328.758 381.669 328.502 382.128C328.246 382.576 328.118 383.093 328.118 383.68C328.118 384.256 328.246 384.779 328.502 385.248C328.758 385.717 329.099 386.085 329.526 386.352C329.963 386.619 330.454 386.752 330.998 386.752ZM340.459 388.192C339.595 388.192 338.843 387.979 338.203 387.552C337.563 387.125 337.109 386.549 336.843 385.824L338.027 385.248C338.272 385.76 338.608 386.165 339.035 386.464C339.461 386.763 339.936 386.912 340.459 386.912C340.928 386.912 341.317 386.8 341.627 386.576C341.936 386.352 342.091 386.059 342.091 385.696C342.091 385.44 342.016 385.237 341.867 385.088C341.728 384.928 341.557 384.805 341.355 384.72C341.152 384.624 340.965 384.555 340.795 384.512L339.499 384.144C338.72 383.92 338.149 383.6 337.787 383.184C337.435 382.768 337.259 382.283 337.259 381.728C337.259 381.216 337.387 380.773 337.643 380.4C337.909 380.016 338.267 379.717 338.715 379.504C339.173 379.291 339.685 379.184 340.251 379.184C341.008 379.184 341.685 379.376 342.283 379.76C342.891 380.144 343.323 380.683 343.579 381.376L342.363 381.936C342.171 381.488 341.883 381.136 341.499 380.88C341.115 380.613 340.683 380.48 340.203 380.48C339.765 380.48 339.419 380.592 339.163 380.816C338.907 381.029 338.779 381.301 338.779 381.632C338.779 381.877 338.843 382.08 338.971 382.24C339.099 382.389 339.253 382.507 339.435 382.592C339.616 382.667 339.792 382.731 339.963 382.784L341.371 383.2C342.075 383.403 342.619 383.717 343.003 384.144C343.397 384.571 343.595 385.083 343.595 385.68C343.595 386.16 343.461 386.592 343.195 386.976C342.928 387.36 342.56 387.659 342.091 387.872C341.621 388.085 341.077 388.192 340.459 388.192ZM352.276 388.192C351.444 388.192 350.703 387.995 350.052 387.6C349.402 387.205 348.89 386.667 348.516 385.984C348.143 385.291 347.956 384.517 347.956 383.664C347.956 382.8 348.138 382.032 348.5 381.36C348.874 380.688 349.375 380.16 350.004 379.776C350.644 379.381 351.359 379.184 352.148 379.184C352.788 379.184 353.354 379.301 353.844 379.536C354.346 379.76 354.767 380.069 355.108 380.464C355.46 380.848 355.727 381.291 355.908 381.792C356.1 382.283 356.196 382.795 356.196 383.328C356.196 383.445 356.186 383.579 356.164 383.728C356.154 383.867 356.138 384 356.116 384.128H349.044V382.848H355.252L354.548 383.424C354.644 382.869 354.591 382.373 354.388 381.936C354.186 381.499 353.887 381.152 353.492 380.896C353.098 380.64 352.65 380.512 352.148 380.512C351.647 380.512 351.188 380.64 350.772 380.896C350.356 381.152 350.031 381.52 349.796 382C349.572 382.469 349.482 383.029 349.524 383.68C349.482 384.309 349.578 384.864 349.812 385.344C350.058 385.813 350.399 386.181 350.836 386.448C351.284 386.704 351.77 386.832 352.292 386.832C352.868 386.832 353.354 386.699 353.748 386.432C354.143 386.165 354.463 385.824 354.708 385.408L355.956 386.048C355.786 386.443 355.519 386.805 355.156 387.136C354.804 387.456 354.383 387.712 353.892 387.904C353.412 388.096 352.874 388.192 352.276 388.192ZM358.136 388V379.376H359.592V381.136L359.384 380.864C359.598 380.32 359.939 379.904 360.408 379.616C360.878 379.328 361.406 379.184 361.992 379.184C362.664 379.184 363.267 379.371 363.8 379.744C364.344 380.117 364.718 380.608 364.92 381.216L364.504 381.232C364.728 380.56 365.107 380.053 365.64 379.712C366.174 379.36 366.766 379.184 367.416 379.184C368.014 379.184 368.552 379.323 369.032 379.6C369.523 379.877 369.912 380.261 370.2 380.752C370.488 381.243 370.632 381.797 370.632 382.416V388H369.128V382.896C369.128 382.416 369.043 382.011 368.872 381.68C368.702 381.349 368.467 381.093 368.168 380.912C367.88 380.72 367.539 380.624 367.144 380.624C366.76 380.624 366.414 380.72 366.104 380.912C365.806 381.093 365.566 381.355 365.384 381.696C365.214 382.027 365.128 382.427 365.128 382.896V388H363.624V382.896C363.624 382.416 363.539 382.011 363.368 381.68C363.198 381.349 362.963 381.093 362.664 380.912C362.376 380.72 362.035 380.624 361.64 380.624C361.256 380.624 360.91 380.72 360.6 380.912C360.302 381.093 360.062 381.355 359.88 381.696C359.71 382.027 359.624 382.427 359.624 382.896V388H358.136ZM375.511 388V376.08H377.687V381.28H382.759V376.08H384.951V388H382.759V383.2H377.687V388H375.511ZM390.174 388.192C389.502 388.192 388.915 388.043 388.414 387.744C387.923 387.445 387.544 387.029 387.278 386.496C387.022 385.963 386.894 385.339 386.894 384.624V379.296H388.99V384.448C388.99 384.811 389.059 385.131 389.198 385.408C389.347 385.675 389.555 385.888 389.822 386.048C390.099 386.197 390.408 386.272 390.75 386.272C391.091 386.272 391.395 386.197 391.662 386.048C391.928 385.888 392.136 385.669 392.286 385.392C392.435 385.115 392.51 384.784 392.51 384.4V379.296H394.606V388H392.622V386.288L392.798 386.592C392.595 387.125 392.259 387.525 391.79 387.792C391.331 388.059 390.792 388.192 390.174 388.192ZM400.778 391.52C400.127 391.52 399.525 391.413 398.97 391.2C398.415 390.987 397.935 390.688 397.53 390.304C397.135 389.931 396.847 389.488 396.666 388.976L398.618 388.24C398.746 388.645 398.997 388.971 399.37 389.216C399.754 389.472 400.223 389.6 400.778 389.6C401.205 389.6 401.578 389.52 401.898 389.36C402.229 389.2 402.485 388.965 402.666 388.656C402.847 388.357 402.938 387.995 402.938 387.568V385.584L403.338 386.064C403.039 386.587 402.639 386.981 402.138 387.248C401.637 387.515 401.066 387.648 400.426 387.648C399.615 387.648 398.89 387.461 398.25 387.088C397.61 386.715 397.109 386.203 396.746 385.552C396.383 384.901 396.202 384.171 396.202 383.36C396.202 382.539 396.383 381.808 396.746 381.168C397.109 380.528 397.605 380.027 398.234 379.664C398.863 379.291 399.578 379.104 400.378 379.104C401.029 379.104 401.599 379.243 402.09 379.52C402.591 379.787 403.007 380.176 403.338 380.688L403.05 381.216V379.296H405.034V387.568C405.034 388.325 404.847 389.003 404.474 389.6C404.111 390.197 403.61 390.667 402.97 391.008C402.341 391.349 401.61 391.52 400.778 391.52ZM400.682 385.712C401.13 385.712 401.519 385.616 401.85 385.424C402.191 385.221 402.458 384.944 402.65 384.592C402.842 384.24 402.938 383.835 402.938 383.376C402.938 382.928 402.837 382.528 402.634 382.176C402.442 381.813 402.175 381.531 401.834 381.328C401.503 381.125 401.119 381.024 400.682 381.024C400.245 381.024 399.85 381.125 399.498 381.328C399.146 381.531 398.869 381.813 398.666 382.176C398.474 382.528 398.378 382.928 398.378 383.376C398.378 383.824 398.474 384.224 398.666 384.576C398.869 384.928 399.141 385.205 399.482 385.408C399.834 385.611 400.234 385.712 400.682 385.712ZM411.12 388.192C410.224 388.192 409.44 387.989 408.768 387.584C408.096 387.179 407.573 386.629 407.2 385.936C406.826 385.243 406.64 384.475 406.64 383.632C406.64 382.757 406.826 381.984 407.2 381.312C407.584 380.629 408.101 380.091 408.752 379.696C409.413 379.301 410.149 379.104 410.96 379.104C411.642 379.104 412.24 379.216 412.752 379.44C413.274 379.664 413.717 379.973 414.08 380.368C414.442 380.763 414.72 381.216 414.912 381.728C415.104 382.229 415.2 382.773 415.2 383.36C415.2 383.509 415.189 383.664 415.168 383.824C415.157 383.984 415.13 384.123 415.088 384.24H408.368V382.64H413.904L412.912 383.392C413.008 382.901 412.981 382.464 412.832 382.08C412.693 381.696 412.458 381.392 412.128 381.168C411.808 380.944 411.418 380.832 410.96 380.832C410.522 380.832 410.133 380.944 409.792 381.168C409.45 381.381 409.189 381.701 409.008 382.128C408.837 382.544 408.773 383.051 408.816 383.648C408.773 384.181 408.842 384.656 409.024 385.072C409.216 385.477 409.493 385.792 409.856 386.016C410.229 386.24 410.656 386.352 411.136 386.352C411.616 386.352 412.021 386.251 412.352 386.048C412.693 385.845 412.96 385.573 413.152 385.232L414.848 386.064C414.677 386.48 414.41 386.848 414.048 387.168C413.685 387.488 413.253 387.739 412.752 387.92C412.261 388.101 411.717 388.192 411.12 388.192ZM419.808 388V376.08H421.984V388H419.808ZM428.293 388.192C427.429 388.192 426.65 387.995 425.957 387.6C425.274 387.195 424.736 386.651 424.341 385.968C423.946 385.275 423.749 384.496 423.749 383.632C423.749 382.768 423.946 381.995 424.341 381.312C424.736 380.629 425.274 380.091 425.957 379.696C426.65 379.301 427.429 379.104 428.293 379.104C428.912 379.104 429.488 379.216 430.021 379.44C430.554 379.653 431.013 379.952 431.397 380.336C431.792 380.709 432.074 381.157 432.245 381.68L430.405 382.48C430.245 382.043 429.973 381.691 429.589 381.424C429.216 381.157 428.784 381.024 428.293 381.024C427.834 381.024 427.424 381.136 427.061 381.36C426.709 381.584 426.432 381.893 426.229 382.288C426.026 382.683 425.925 383.136 425.925 383.648C425.925 384.16 426.026 384.613 426.229 385.008C426.432 385.403 426.709 385.712 427.061 385.936C427.424 386.16 427.834 386.272 428.293 386.272C428.794 386.272 429.232 386.139 429.605 385.872C429.978 385.605 430.245 385.248 430.405 384.8L432.245 385.632C432.074 386.123 431.797 386.565 431.413 386.96C431.029 387.344 430.57 387.648 430.037 387.872C429.504 388.085 428.922 388.192 428.293 388.192ZM438.091 388.192C437.238 388.192 436.459 387.995 435.755 387.6C435.062 387.205 434.507 386.667 434.091 385.984C433.686 385.301 433.483 384.523 433.483 383.648C433.483 382.773 433.686 381.995 434.091 381.312C434.507 380.629 435.062 380.091 435.755 379.696C436.449 379.301 437.227 379.104 438.091 379.104C438.945 379.104 439.718 379.301 440.411 379.696C441.105 380.091 441.654 380.629 442.059 381.312C442.475 381.984 442.683 382.763 442.683 383.648C442.683 384.523 442.475 385.301 442.059 385.984C441.643 386.667 441.089 387.205 440.395 387.6C439.702 387.995 438.934 388.192 438.091 388.192ZM438.091 386.272C438.561 386.272 438.971 386.16 439.323 385.936C439.686 385.712 439.969 385.403 440.171 385.008C440.385 384.603 440.491 384.149 440.491 383.648C440.491 383.136 440.385 382.688 440.171 382.304C439.969 381.909 439.686 381.6 439.323 381.376C438.971 381.141 438.561 381.024 438.091 381.024C437.611 381.024 437.19 381.141 436.827 381.376C436.465 381.6 436.177 381.909 435.963 382.304C435.761 382.688 435.659 383.136 435.659 383.648C435.659 384.149 435.761 384.603 435.963 385.008C436.177 385.403 436.465 385.712 436.827 385.936C437.19 386.16 437.611 386.272 438.091 386.272ZM444.273 388V379.296H446.241V381.008L446.081 380.704C446.284 380.181 446.614 379.787 447.073 379.52C447.542 379.243 448.086 379.104 448.705 379.104C449.345 379.104 449.91 379.243 450.401 379.52C450.902 379.797 451.292 380.187 451.569 380.688C451.846 381.179 451.985 381.749 451.985 382.4V388H449.889V382.896C449.889 382.512 449.814 382.181 449.665 381.904C449.516 381.627 449.308 381.413 449.041 381.264C448.785 381.104 448.481 381.024 448.129 381.024C447.788 381.024 447.484 381.104 447.217 381.264C446.95 381.413 446.742 381.627 446.593 381.904C446.444 382.181 446.369 382.512 446.369 382.896V388H444.273ZM457.069 388.192C456.141 388.192 455.331 387.973 454.637 387.536C453.955 387.088 453.485 386.485 453.229 385.728L454.797 384.976C455.021 385.467 455.331 385.851 455.725 386.128C456.131 386.405 456.579 386.544 457.069 386.544C457.453 386.544 457.757 386.459 457.981 386.288C458.205 386.117 458.317 385.893 458.317 385.616C458.317 385.445 458.269 385.307 458.173 385.2C458.088 385.083 457.965 384.987 457.805 384.912C457.656 384.827 457.491 384.757 457.309 384.704L455.885 384.304C455.149 384.091 454.589 383.765 454.205 383.328C453.832 382.891 453.645 382.373 453.645 381.776C453.645 381.243 453.779 380.779 454.045 380.384C454.323 379.979 454.701 379.664 455.181 379.44C455.672 379.216 456.232 379.104 456.861 379.104C457.683 379.104 458.408 379.301 459.037 379.696C459.667 380.091 460.115 380.645 460.381 381.36L458.781 382.112C458.632 381.717 458.381 381.403 458.029 381.168C457.677 380.933 457.283 380.816 456.845 380.816C456.493 380.816 456.216 380.896 456.013 381.056C455.811 381.216 455.709 381.424 455.709 381.68C455.709 381.84 455.752 381.979 455.837 382.096C455.923 382.213 456.04 382.309 456.189 382.384C456.349 382.459 456.531 382.528 456.733 382.592L458.125 383.008C458.84 383.221 459.389 383.541 459.773 383.968C460.168 384.395 460.365 384.917 460.365 385.536C460.365 386.059 460.227 386.523 459.949 386.928C459.672 387.323 459.288 387.632 458.797 387.856C458.307 388.08 457.731 388.192 457.069 388.192Z" fill="#121214"/>
<path d="M374.359 390.8H461.005V391.44H374.359V390.8Z" fill="#121214"/>
<a href="https://hugeicons.com/">
<rect fill="black" fill-opacity="0" x="278.359" y="2.92" width="86.6459" height="20.16"/>
</a>
</svg>
